<svg width="110" height="92" xmlns="http://www.w3.org/2000/svg">
 <g id="Layer_1">
  <title>Layer 1</title>
  <g stroke-width="0">
   <path fill="#D2B08D" d="m100.74,48.653c-1.992,-4.596 -4.828,-8.746 -8.316,-12.239l0.011,-0.011l8.773,-8.767l8.773,-8.767c-5.285,-5.285 -11.486,-9.661 -18.342,-12.858c-7.837,-3.659 -16.534,-5.785 -25.705,-5.995c-0.5,-0.011 -1.006,-0.016 -1.512,-0.016c-0.506,0 -1.012,0.005 -1.512,0.016c-34.354,0.791 -62.06,28.47 -62.889,62.818c-0.011,0.528 -0.021,1.06 -0.021,1.588c0,0.527 0.005,1.06 0.021,1.588c0.221,9.138 2.347,17.814 5.996,25.629l58.416,0l-4.623,-5.291l-0.528,-0.603c-3.891,-0.931 -7.465,-2.917 -10.366,-5.818c-4.144,-4.144 -6.42,-9.649 -6.42,-15.505c0,-5.856 2.282,-11.361 6.42,-15.506c4.145,-4.144 9.65,-6.42 15.506,-6.42c5.856,0 11.361,2.282 15.505,6.42c4.145,4.145 6.421,9.65 6.421,15.506l0,21.926l-9.348,0l-2.25,-2.572l-8.138,-9.306l-5.731,-6.555c-0.14,-0.14 -0.269,-0.291 -0.388,-0.447c-0.656,-0.845 -1.044,-1.9 -1.044,-3.051c0,-2.272 1.528,-4.193 3.606,-4.796l-0.549,-1.48l-1.292,-3.482c-0.441,0.145 -0.877,0.323 -1.291,0.527c-3.407,1.674 -5.759,5.183 -5.759,9.236c0,0.667 0.064,1.319 0.188,1.954c0.329,1.695 1.071,3.24 2.121,4.526l0.479,0.549l12.524,14.321l0.506,0.581l3.326,3.806l1.297,1.48l17.039,0l0,-27.217c0,-3.708 -0.743,-7.244 -2.088,-10.468l13.046,0l-1.851,-5.291l-0.011,-0.01zm-91.263,37.684c-2.605,-6.501 -4.009,-13.374 -4.176,-20.462c-0.011,-0.506 -0.016,-0.996 -0.016,-1.464c0,-0.468 0.005,-0.958 0.016,-1.458c0.188,-7.713 1.835,-15.183 4.903,-22.201c2.971,-6.792 7.147,-12.911 12.422,-18.175c10.801,-10.791 25.15,-16.932 40.402,-17.282l0.011,0c0.436,-0.01 0.904,-0.016 1.378,-0.016c0.473,0 0.941,0.006 1.377,0.016l0.011,0c8.235,0.189 16.173,2.04 23.589,5.501c4.667,2.18 8.999,4.935 12.933,8.234l-4.865,4.866l-0.188,0.188c-1.787,-1.459 -3.671,-2.799 -5.646,-4.01c-7.917,-4.87 -17.239,-7.68 -27.217,-7.68c-28.729,0 -52.022,23.294 -52.022,52.023c0,7.836 1.733,15.263 4.833,21.926l-7.75,0l0.005,-0.006zm13.66,0c-3.579,-6.716 -5.452,-14.24 -5.452,-21.926c0,-6.313 1.232,-12.432 3.67,-18.191c2.352,-5.565 5.727,-10.559 10.016,-14.854c4.295,-4.295 9.29,-7.664 14.855,-10.016c5.758,-2.438 11.878,-3.671 18.191,-3.671c8.659,0 17.109,2.385 24.45,6.9c1.614,0.99 3.17,2.083 4.65,3.267l-4.817,4.817l-0.253,0.253l-0.005,0c-3.407,-2.6 -7.244,-4.666 -11.394,-6.06c-0.145,-0.049 -0.296,-0.097 -0.447,-0.146c-0.296,-0.096 -0.597,-0.188 -0.898,-0.279c-0.151,-0.044 -0.302,-0.087 -0.452,-0.13c-0.781,-0.22 -1.572,-0.419 -2.374,-0.592c-0.64,-0.14 -1.286,-0.263 -1.937,-0.371c-0.162,-0.027 -0.329,-0.054 -0.49,-0.075c-0.162,-0.027 -0.329,-0.049 -0.49,-0.07c-0.124,-0.016 -0.248,-0.033 -0.366,-0.049c-0.215,-0.027 -0.431,-0.054 -0.651,-0.08c-0.156,-0.017 -0.312,-0.033 -0.468,-0.049c-0.167,-0.016 -0.334,-0.032 -0.501,-0.048c-0.167,-0.017 -0.334,-0.027 -0.5,-0.043c-0.167,-0.011 -0.334,-0.027 -0.501,-0.033c-0.005,0 -0.016,0 -0.021,0c-0.162,-0.01 -0.323,-0.021 -0.485,-0.027c-0.167,-0.01 -0.339,-0.016 -0.506,-0.021c-0.145,-0.006 -0.29,-0.011 -0.43,-0.016c-0.049,0 -0.097,0 -0.146,0l-0.247,0c-0.097,-0.006 -0.189,-0.011 -0.285,-0.011c-0.14,0 -0.28,0 -0.426,0c-1.743,0 -3.46,0.113 -5.139,0.334c-0.313,0.043 -0.625,0.086 -0.937,0.134c-0.312,0.049 -0.619,0.102 -0.926,0.156c0,0 -0.005,0 -0.01,0c-0.582,0.103 -1.152,0.221 -1.723,0.35c-0.688,0.156 -1.372,0.328 -2.05,0.522c-0.522,0.145 -1.033,0.307 -1.545,0.474c-0.247,0.08 -0.495,0.167 -0.737,0.253c-0.242,0.086 -0.479,0.172 -0.721,0.258c-0.237,0.086 -0.469,0.178 -0.705,0.269c-0.232,0.092 -0.458,0.183 -0.684,0.275c-0.565,0.236 -1.13,0.484 -1.684,0.748c-13.412,6.334 -22.691,19.983 -22.691,35.801c0,8.137 2.454,15.693 6.663,21.98l-8.38,0l-0.021,-0.033zm63.469,-37.684c-0.086,-0.124 -0.172,-0.242 -0.263,-0.366c-4.952,-6.728 -12.933,-11.098 -21.926,-11.098c-15.032,0 -27.217,12.185 -27.217,27.217c0,8.998 4.365,16.975 11.092,21.926l-10.29,0c-5.118,-6.152 -7.917,-13.859 -7.917,-21.926c0,-4.634 0.909,-9.133 2.696,-13.364c1.728,-4.085 4.204,-7.76 7.357,-10.914c3.154,-3.154 6.825,-5.63 10.915,-7.357c0.931,-0.393 1.878,-0.749 2.836,-1.055c0.135,-0.043 0.275,-0.086 0.409,-0.13c0.157,-0.048 0.313,-0.096 0.474,-0.139c0.178,-0.054 0.361,-0.103 0.538,-0.151c0.205,-0.059 0.415,-0.113 0.619,-0.167c0.549,-0.14 1.104,-0.269 1.663,-0.377c0.425,-0.086 0.851,-0.161 1.281,-0.231c0.355,-0.059 0.705,-0.108 1.066,-0.156c1.474,-0.194 2.971,-0.291 4.478,-0.291c0.145,0 0.29,0 0.436,0c0.15,0 0.301,0 0.452,0.011c0.113,0 0.231,0.005 0.344,0.011c0.048,0 0.092,0 0.14,0c0.108,0 0.215,0.01 0.323,0.016c0.086,0 0.167,0.005 0.247,0.011c0.108,0.005 0.216,0.01 0.323,0.021c0.124,0.005 0.248,0.016 0.377,0.027c0.248,0.016 0.501,0.038 0.748,0.065c1.491,0.145 2.96,0.382 4.403,0.721c0.247,0.054 0.495,0.118 0.742,0.177c0.124,0.033 0.248,0.065 0.366,0.097c0.14,0.038 0.275,0.076 0.409,0.113c0.14,0.038 0.275,0.076 0.409,0.119c0.151,0.048 0.307,0.091 0.458,0.14c0.178,0.053 0.355,0.113 0.533,0.172c0.091,0.027 0.177,0.059 0.269,0.091c0.204,0.07 0.409,0.14 0.613,0.216c0.2,0.07 0.399,0.145 0.603,0.22c0.097,0.038 0.194,0.07 0.291,0.113c3.407,1.324 6.598,3.203 9.451,5.576l0,0.016c0.796,0.662 1.566,1.367 2.308,2.11c1.071,1.076 2.067,2.207 2.982,3.396c1.238,1.609 2.325,3.326 3.256,5.134l-8.283,0l-0.011,0.006z"/>
  </g>
 </g>

</svg>